<svg xmlns="http://www.w3.org/2000/svg" version="1.1" xmlns:xlink="http://www.w3.org/1999/xlink" xmlns:svgjs="http://svgjs.dev/svgjs" width="1400" height="660" preserveAspectRatio="none" viewBox="0 0 1400 660"><g mask="url(&quot;#SvgjsMask1021&quot;)" fill="none"><path d="M175.157,391.123C249.386,389.847,310.43,338.979,347.093,274.424C383.245,210.769,398.174,130.76,357.651,69.794C320.011,13.165,242.98,10.894,175.157,15.753C117.479,19.885,65.769,45.443,32.952,93.055C-5.925,149.459,-36.832,218.691,-7.335,280.519C25.493,349.327,98.93,392.434,175.157,391.123" fill="rgba(1, 98, 196, 0.41)" class="triangle-float1"></path><path d="M106.26279441628822 216.26279441628827L205.26279441628824 44.789764466969416 33.78976446696939-54.210235533030584-65.21023553303064 117.26279441628824z" fill="rgba(1, 98, 196, 0.41)" class="triangle-float2"></path><path d="M-87.20013287040418 93.01331687317403L74.9919718988162 206.58145127068116 188.56010629632334 44.38934650146078 26.368001527102948-69.17878789604634z" fill="rgba(1, 98, 196, 0.41)" class="triangle-float3"></path><path d="M1179.0284741913931 79.55825167756828L1330.7052739289509 206.83019839550303 1457.9772206468856 55.153398657945374 1306.3004209093278-72.1185480599894z" fill="rgba(1, 98, 196, 0.41)" class="triangle-float1"></path><path d="M1371.6342148371264 216.94259131733833L1473.611753669317 47.223465778320076 1303.8926281302988-54.75407305387063 1201.9150892981081 114.9650524851476z" fill="rgba(1, 98, 196, 0.41)" class="triangle-float1"></path><path d="M1146.88 33.11 a154.23 154.23 0 1 0 308.46 0 a154.23 154.23 0 1 0 -308.46 0z" fill="rgba(1, 98, 196, 0.41)" class="triangle-float2"></path><path d="M108.9804241338201 492.74446612023155L-69.63987318682453 632.0240029699946 112.62008779675867 709.3887664108709z" fill="rgba(1, 98, 196, 0.41)" class="triangle-float2"></path><path d="M94.253,734.292C132.628,733.184,163.661,706.656,182.76,673.353C201.747,640.246,207.534,600.852,190.312,566.794C171.294,529.184,136.342,500.493,94.253,498.322C48.393,495.956,1.232,515.542,-20.657,555.91C-41.775,594.856,-27.564,641.489,-3.572,678.733C18.194,712.522,54.077,735.452,94.253,734.292" fill="rgba(1, 98, 196, 0.41)" class="triangle-float2"></path><path d="M172.0940463348254 480.22806439062435L-25.785337414955563 487.1381647377196-18.875237067860354 685.0175484875006 179.00414668192062 678.1074481404053z" fill="rgba(1, 98, 196, 0.41)" class="triangle-float2"></path><path d="M1165.57 542.43 a116.86 116.86 0 1 0 233.72 0 a116.86 116.86 0 1 0 -233.72 0z" fill="rgba(1, 98, 196, 0.41)" class="triangle-float1"></path><path d="M1381.592,790.557C1435.503,794.996,1490.617,766.881,1514.735,718.462C1537.041,673.68,1510.601,624.879,1485.745,581.46C1460.655,537.632,1431.998,489.001,1381.592,485.886C1327.21,482.525,1275.573,517.699,1252.47,567.044C1231.955,610.86,1257.484,657.381,1281.685,699.274C1305.87,741.139,1333.406,786.59,1381.592,790.557" fill="rgba(1, 98, 196, 0.41)" class="triangle-float2"></path><path d="M1318.012,663.019C1346.432,662.658,1368.266,639.783,1380.937,614.342C1392.202,591.724,1389.248,566.04,1377.438,543.702C1364.642,519.499,1345.374,496.226,1318.012,495.321C1289.454,494.376,1265.036,514.442,1251.362,539.532C1238.292,563.515,1239.282,591.941,1252.255,615.977C1265.974,641.396,1289.129,663.386,1318.012,663.019" fill="rgba(1, 98, 196, 0.41)" class="triangle-float3"></path></g><defs><mask id="SvgjsMask1021"><rect width="1400" height="660" fill="#ffffff"></rect></mask><style>
                @keyframes float1 {
                    0%{transform: translate(0, 0)}
                    50%{transform: translate(-10px, 0)}
                    100%{transform: translate(0, 0)}
                }

                .triangle-float1 {
                    animation: float1 5s infinite;
                }

                @keyframes float2 {
                    0%{transform: translate(0, 0)}
                    50%{transform: translate(-5px, -5px)}
                    100%{transform: translate(0, 0)}
                }

                .triangle-float2 {
                    animation: float2 4s infinite;
                }

                @keyframes float3 {
                    0%{transform: translate(0, 0)}
                    50%{transform: translate(0, -10px)}
                    100%{transform: translate(0, 0)}
                }

                .triangle-float3 {
                    animation: float3 6s infinite;
                }
            </style></defs></svg>