<svg xmlns="http://www.w3.org/2000/svg" version="1.1" xmlns:xlink="http://www.w3.org/1999/xlink" xmlns:svgjs="http://svgjs.dev/svgjs" width="1440" height="560" preserveAspectRatio="none" viewBox="0 0 1440 560"><g mask="url(&quot;#SvgjsMask1059&quot;)" fill="none"><rect width="1440" height="560" x="0" y="0" fill="#1e3266"></rect><path d="M1464 560L0 560 L0 290.13Q33.91 252.04, 72 285.95Q143.31 237.26, 192 308.57Q250.31 294.88, 264 353.19Q286.04 255.23, 384 277.27Q438.81 212.07, 504 266.88Q574.91 265.79, 576 336.7Q641.58 282.27, 696 347.85Q737.81 317.66, 768 359.47Q770.79 290.26, 840 293.06Q889.45 222.51, 960 271.97Q1038.73 230.7, 1080 309.43Q1131.86 289.29, 1152 341.15Q1180.46 249.61, 1272 278.07Q1318.9 252.98, 1344 299.88Q1423.01 258.89, 1464 337.91z" fill="#182f5d"></path><path d="M1536 560L0 560 L0 408.78Q9.14 345.92, 72 355.06Q124.32 287.38, 192 339.7Q290.93 318.63, 312 417.56Q334.69 368.25, 384 390.94Q411.65 346.59, 456 374.24Q478.88 325.12, 528 348Q570.04 318.04, 600 360.09Q670.29 358.38, 672 428.66Q706.55 343.21, 792 377.75Q869.11 334.86, 912 411.97Q912.66 340.63, 984 341.3Q1068.48 305.78, 1104 390.27Q1179.55 345.81, 1224 421.36Q1258.16 335.52, 1344 369.69Q1394.72 348.41, 1416 399.14Q1451.66 314.81, 1536 350.47z" fill="#25467d"></path><path d="M1560 560L0 560 L0 512.27Q-5.82 434.45, 72 428.63Q102.68 387.31, 144 417.98Q249.84 403.82, 264 509.66Q307.81 433.48, 384 477.29Q396.22 417.51, 456 429.73Q522.88 376.61, 576 443.49Q647.88 395.37, 696 467.24Q705.77 405.01, 768 414.78Q812.2 386.98, 840 431.18Q910.85 382.02, 960 452.87Q1011.84 432.71, 1032 484.54Q1032.68 413.23, 1104 413.91Q1202.56 392.47, 1224 491.03Q1251.66 446.69, 1296 474.35Q1325.63 431.98, 1368 461.6Q1416.6 438.2, 1440 486.8Q1509.03 435.83, 1560 504.85z" fill="#356cb1"></path><path d="M1512 560L0 560 L0 587.62Q24.98 540.6, 72 565.57Q98.21 471.78, 192 497.98Q257.27 443.25, 312 508.53Q365.77 490.3, 384 544.07Q393.85 481.92, 456 491.77Q529.54 445.31, 576 518.86Q640.82 511.68, 648 576.5Q686.7 495.2, 768 533.9Q798.63 492.53, 840 523.16Q885.44 448.6, 960 494.04Q1003.45 465.5, 1032 508.95Q1123.3 480.25, 1152 571.54Q1173.07 472.61, 1272 493.67Q1350.14 451.82, 1392 529.96Q1463.92 481.88, 1512 553.81z" fill="white"></path></g><defs><mask id="SvgjsMask1059"><rect width="1440" height="560" fill="#ffffff"></rect></mask></defs></svg>