<svg xmlns="http://www.w3.org/2000/svg" version="1.1" xmlns:xlink="http://www.w3.org/1999/xlink" xmlns:svgjs="http://svgjs.dev/svgjs" width="3000" height="600" preserveAspectRatio="none" viewBox="0 0 3000 600"><g mask="url(&quot;#SvgjsMask1021&quot;)" fill="none"><rect width="3000" height="600" x="0" y="0" fill="#1e3266"></rect><path d="M3250 600L0 600 L0 329.88Q57.85 237.73, 150 295.57Q310.05 205.62, 400 365.67Q497.25 212.92, 650 310.17Q813.92 224.1, 900 388.02Q961.38 299.4, 1050 360.78Q1136.68 197.46, 1300 284.15Q1470.46 204.62, 1550 375.08Q1667.18 242.26, 1800 359.45Q1892.07 201.51, 2050 293.58Q2170.02 263.6, 2200 383.62Q2252.93 286.56, 2350 339.49Q2446.84 186.33, 2600 283.17Q2722.07 255.24, 2750 377.3Q2863.45 240.75, 3000 354.2Q3113.47 217.66, 3250 331.13z" fill="#182f5d"></path><path d="M3200 600L0 600 L0 455.61Q101.14 306.75, 250 407.9Q386.38 294.28, 500 430.67Q548.96 329.63, 650 378.59Q806.37 284.96, 900 441.33Q1015.44 306.77, 1150 422.22Q1268.1 290.32, 1400 408.42Q1459.58 318, 1550 377.58Q1712.97 290.55, 1800 453.53Q1880.58 384.11, 1950 464.68Q2000.75 365.43, 2100 416.18Q2215.53 281.72, 2350 397.25Q2457.92 355.17, 2500 463.09Q2536.74 349.83, 2650 386.58Q2734.36 320.94, 2800 405.3Q2891.88 347.18, 2950 439.06Q3081.88 320.94, 3200 452.81z" fill="#25467d"></path><path d="M3200 600L0 600 L0 532.12Q51.14 433.26, 150 484.41Q239.63 424.04, 300 513.67Q393.89 457.56, 450 551.45Q482.41 433.86, 600 466.27Q754.34 370.61, 850 524.95Q905.54 430.5, 1000 486.04Q1119.17 355.21, 1250 474.38Q1409.75 384.13, 1500 543.87Q1559.8 453.66, 1650 513.46Q1747.62 361.08, 1900 458.7Q2007.42 416.13, 2050 523.55Q2151.28 374.84, 2300 476.12Q2384.35 410.47, 2450 494.82Q2585.28 380.1, 2700 515.38Q2800.49 365.87, 2950 466.35Q3087.66 354.01, 3200 491.67z" fill="#356cb1"></path><path d="M3250 600L0 600 L0 595.71Q76.32 522.03, 150 598.35Q217.83 516.18, 300 584.01Q418.53 452.54, 550 571.07Q643.47 514.54, 700 608Q737.02 495.02, 850 532.05Q934.33 466.38, 1000 550.7Q1158.57 459.27, 1250 617.83Q1312.58 530.41, 1400 592.99Q1468.76 511.75, 1550 580.51Q1695.54 476.05, 1800 621.58Q1913.1 484.68, 2050 597.78Q2147.15 444.93, 2300 542.08Q2467.82 459.89, 2550 627.71Q2593.04 520.75, 2700 563.79Q2791.27 505.06, 2850 596.33Q2934.88 531.21, 3000 616.08Q3083.41 449.49, 3250 532.89z" fill="white"></path></g><defs><mask id="SvgjsMask1021"><rect width="3000" height="600" fill="#ffffff"></rect></mask></defs></svg>