<svg xmlns="http://www.w3.org/2000/svg" version="1.1" xmlns:xlink="http://www.w3.org/1999/xlink" xmlns:svgjs="http://svgjs.dev/svgjs" width="1326" height="560" preserveAspectRatio="none" viewBox="0 0 1326 560"><g mask="url(&quot;#SvgjsMask1562&quot;)" fill="none"><use xlink:href="#SvgjsG1573" transform="translate(0, 0)" fill="rgba(108, 117, 127, 0.41)"></use><use xlink:href="#SvgjsG1573" transform="translate(660, 0)" fill="rgba(108, 117, 127, 0.41)"></use><use xlink:href="#SvgjsG1573" transform="translate(1320, 0)" fill="rgba(108, 117, 127, 0.41)"></use></g><defs><mask id="SvgjsMask1562"><rect width="1326" height="560" fill="#ffffff"></rect></mask><g id="SvgjsG1568"><path d="M6.498 9.304L12.139 3.663l1.565 1.566-5.641 5.641z"></path><path d="M6.8 0.457h2.541v8.028H6.8z"></path><path d="M8.072 10.876L2.429 5.238l1.563-1.566L9.636 9.313zM1.2 13.277h13.733v2.266H1.2z"></path><path d="M0.733 9.143h2.267v6.4h-2.267z m12.267 0h2.267v6.4h-2.267z"></path></g><g id="SvgjsG1572"><path d="M2.524 8.637H0.014V7.308h2.51v1.329zM3.656 4.576L1.884 2.804l0.935-0.935 1.772 1.772-0.935 0.935z m0 6.817l0.935 0.935-1.772 1.773-0.934-0.936 1.771-1.772z m4.997-8.884h-1.33V-0.002h1.33v2.511z m-1.33 10.952h1.33v2.51h-1.33v-2.509zM12.344 4.576l-0.96-0.935 1.796-1.772 0.935 0.935-1.772 1.772z m0 6.792l1.771 1.797-0.935 0.936-1.771-1.774 0.936-0.96z m3.643-4.06v1.329h-2.51V7.308h2.509z"></path><path d="M3.702 7.984a4.184 4.184 0 1 0 8.368 0 4.184 4.184 0 1 0-8.368 0"></path></g><g id="SvgjsG1564"><path d="M8 1.076C3.594 1.076 0.023 3.767 0.023 7.088c0 1.625 0.857 3.099 2.248 4.181l0.003 3.607 4.168-1.892c0.504 0.075 1.025 0.115 1.558 0.116 4.406 0 7.976-2.692 7.976-6.012C15.976 3.767 12.406 1.076 8 1.076z" fill-rule="evenodd"></path></g><g id="SvgjsG1571"><path d="M14.885 8.725h-1.479v5.687c0.01 1.007 1.48 1.007 1.479 0V8.725z m-1.69 0h-1.479v5.687c0.006 1 1.476 1 1.479 0V8.725z m-3.593 0h-1.479v5.687c0.009 1.007 1.48 1.007 1.479 0V8.725z m-1.691 0h-1.479v5.687c0.006 1 1.477 1 1.479 0V8.725z m-3.592 0h-1.479v5.687c0.009 1.007 1.48 1.007 1.479 0V8.725z m-1.69 0h-1.479v5.687c0.005 1 1.477 1 1.479 0V8.725z"></path><path d="M15.828 8.303a0.57 0.57 0 0 1-0.578 0.577s-3.866 0.005-3.88 0a0.576 0.576 0 0 1-0.576-0.577V4.096a0.793 0.793 0 0 1 0.806-0.807c-0.005-0.005 3.419 0 3.418 0a0.792 0.792 0 0 1 0.808 0.807v4.206h0.001zM13.329 2.944c0.606 0 1.099-0.494 1.095-1.096A1.1 1.1 0 0 0 13.329 0.734a1.119 1.119 0 0 0-1.114 1.114 1.113 1.113 0 0 0 1.114 1.096z m-2.785 5.359a0.567 0.567 0 0 1-0.576 0.577s-3.866 0.005-3.881 0a0.576 0.576 0 0 1-0.576-0.577V4.096a0.794 0.794 0 0 1 0.807-0.807c-0.005-0.005 3.419 0 3.419 0a0.791 0.791 0 0 1 0.807 0.807v4.206zM8.047 2.944c0.605 0 1.099-0.494 1.094-1.096A1.1 1.1 0 0 0 8.047 0.734a1.12 1.12 0 0 0-1.115 1.114 1.114 1.114 0 0 0 1.114 1.096z m-2.787 5.359a0.568 0.568 0 0 1-0.576 0.577s-3.866 0.005-3.88 0a0.576 0.576 0 0 1-0.576-0.577V4.096a0.793 0.793 0 0 1 0.807-0.808c-0.005-0.005 3.42 0 3.419 0a0.791 0.791 0 0 1 0.807 0.807v4.207zM2.763 2.944c0.606 0 1.1-0.494 1.096-1.096A1.1 1.1 0 0 0 2.763 0.734a1.118 1.118 0 0 0-1.113 1.114A1.112 1.112 0 0 0 2.763 2.944z"></path></g><g id="SvgjsG1569"><path d="M13.851 6.028c0-3.226-2.624-5.85-5.85-5.85-3.226 0-5.85 2.624-5.85 5.85H0.667v9.3h14.666v-9.3h-1.482z m-9.301 0c0-1.902 1.548-3.45 3.45-3.45S11.451 4.125 11.451 6.028H4.551z m4.233 4.389v2.674h-1.585V10.416c-0.331-0.244-0.547-0.635-0.547-1.079 0-0.74 0.6-1.34 1.341-1.34s1.34 0.6 1.34 1.34c0 0.443-0.216 0.835-0.547 1.08z"></path></g><g id="SvgjsG1563"><path d="M15.769 13.134v-0.004s-3.022-3.019-3.024-3.02a0.605 0.605 0 0 0-0.858 0.002L10.496 11.509c-0.541 0.541-1.238 0.061-2.577-1.031-0.886-0.722-1.905-1.693-2.788-2.788-0.62-0.768-1.168-1.575-0.602-2.141 0.001-0.001 1.397-1.393 1.398-1.395l0.001-0.003c0.251-0.25 0.226-0.634-0.003-0.862v-0.004L2.813 0.177c-0.24-0.239-0.623-0.234-0.858 0.002L0.553 1.58C-0.024 2.303-1.307 5.747 4.194 11.385c5.795 5.94 9.534 4.669 10.177 3.999 0 0 1.4-1.383 1.4-1.384l0.001-0.003c0.251-0.251 0.225-0.635-0.002-0.864z"></path></g><g id="SvgjsG1570"><path d="M9.46 6.313c-1.577 0-2.86 1.283-2.86 2.86s1.283 2.86 2.86 2.86 2.86-1.283 2.86-2.86-1.283-2.86-2.86-2.86z"></path><path d="M13.26 3.839l-0.624-1.912h-6.352L5.661 3.839H0v10.668h16v-10.668H13.26zM3.744 6.743H1.543v-1.176H3.744v1.176z m5.716 6.624c-2.312 0-4.193-1.881-4.193-4.194s1.881-4.194 4.193-4.193 4.193 1.881 4.194 4.193-1.88 4.194-4.193 4.194z"></path></g><g id="SvgjsG1567"><path d="M15.828 7.44l-1.288-1.3H6.996C6.352 5.004 5.141 4.237 3.752 4.24 1.681 4.236 0.004 5.93 0 8.016c0.005 2.091 1.681 3.785 3.751 3.788 1.386-0.002 2.594-0.767 3.24-1.9h1.517l1.202-1.202 0.92 0.92 0.882-0.883 0.908 0.906 0.919-0.919 0.919 0.919 1.57-1.568c0.226-0.236 0.233-0.402 0-0.637zM2.109 9.009c-0.553-0.005-0.998-0.455-0.993-1.006-0.005-0.558 0.44-1.008 0.993-1.005 0.544-0.003 0.989 0.447 0.993 1.005-0.004 0.55-0.449 1-0.993 1.006z"></path></g><g id="SvgjsG1565"><path d="M8 2.022C3.815 2.022 0.422 4.579 0.422 7.733c0 1.544 0.814 2.944 2.135 3.972l0.003 3.427 3.961-1.798c0.479 0.071 0.973 0.11 1.48 0.11 4.185 0 7.578-2.557 7.578-5.711 0-3.154-3.392-5.711-7.577-5.711zM4.81 8.933a1.067 1.067 0 1 1 0-2.133 1.067 1.067 0 0 1 0 2.133z m3.186 0a1.067 1.067 0 1 1 0-2.133 1.067 1.067 0 0 1 0 2.133z m3.143 0c-0.589 0-1.067-0.478-1.067-1.066s0.477-1.067 1.067-1.067 1.067 0.478 1.067 1.067a1.067 1.067 0 0 1-1.067 1.066z"></path></g><g id="SvgjsG1566"><path d="M0.005 7.414L16 0 8.581 15.995l-0.627-7.948z"></path></g><g id="SvgjsG1573"><use xlink:href="#SvgjsG1563" transform="translate(0, 0) scale(3)" fill="rgba(108, 117, 127, 0.41)"></use><use xlink:href="#SvgjsG1563" transform="translate(0, 66) scale(3)" fill="rgba(108, 117, 127, 0.41)"></use><use xlink:href="#SvgjsG1564" transform="translate(0, 132) scale(3)" fill="rgba(108, 117, 127, 0.41)"></use><use xlink:href="#SvgjsG1565" transform="translate(0, 198) scale(3)" fill="rgba(108, 117, 127, 0.41)"></use><use xlink:href="#SvgjsG1565" transform="translate(0, 264) scale(3)" fill="rgba(108, 117, 127, 0.41)"></use><use xlink:href="#SvgjsG1566" transform="translate(0, 330) scale(3)" fill="rgba(108, 117, 127, 0.41)"></use><use xlink:href="#SvgjsG1567" transform="translate(0, 396) scale(3)" fill="rgba(108, 117, 127, 0.41)"></use><use xlink:href="#SvgjsG1568" transform="translate(0, 462) scale(3)" fill="rgba(108, 117, 127, 0.41)"></use><use xlink:href="#SvgjsG1564" transform="translate(0, 528) scale(3)" fill="rgba(108, 117, 127, 0.41)"></use><use xlink:href="#SvgjsG1567" transform="translate(66, 0) scale(3)" fill="rgba(108, 117, 127, 0.41)"></use><use xlink:href="#SvgjsG1563" transform="translate(66, 66) scale(3)" fill="rgba(108, 117, 127, 0.41)"></use><use xlink:href="#SvgjsG1563" transform="translate(66, 132) scale(3)" fill="rgba(108, 117, 127, 0.41)"></use><use xlink:href="#SvgjsG1564" transform="translate(66, 198) scale(3)" fill="rgba(108, 117, 127, 0.41)"></use><use xlink:href="#SvgjsG1564" transform="translate(66, 264) scale(3)" fill="rgba(108, 117, 127, 0.41)"></use><use xlink:href="#SvgjsG1565" transform="translate(66, 330) scale(3)" fill="rgba(108, 117, 127, 0.41)"></use><use xlink:href="#SvgjsG1566" transform="translate(66, 396) scale(3)" fill="rgba(108, 117, 127, 0.41)"></use><use xlink:href="#SvgjsG1565" transform="translate(66, 462) scale(3)" fill="rgba(108, 117, 127, 0.41)"></use><use xlink:href="#SvgjsG1569" transform="translate(66, 528) scale(3)" fill="rgba(108, 117, 127, 0.41)"></use><use xlink:href="#SvgjsG1569" transform="translate(132, 0) scale(3)" fill="rgba(108, 117, 127, 0.41)"></use><use xlink:href="#SvgjsG1569" transform="translate(132, 66) scale(3)" fill="rgba(108, 117, 127, 0.41)"></use><use xlink:href="#SvgjsG1565" transform="translate(132, 132) scale(3)" fill="rgba(108, 117, 127, 0.41)"></use><use xlink:href="#SvgjsG1570" transform="translate(132, 198) scale(3)" fill="rgba(108, 117, 127, 0.41)"></use><use xlink:href="#SvgjsG1569" transform="translate(132, 264) scale(3)" fill="rgba(108, 117, 127, 0.41)"></use><use xlink:href="#SvgjsG1570" transform="translate(132, 330) scale(3)" fill="rgba(108, 117, 127, 0.41)"></use><use xlink:href="#SvgjsG1570" transform="translate(132, 396) scale(3)" fill="rgba(108, 117, 127, 0.41)"></use><use xlink:href="#SvgjsG1570" transform="translate(132, 462) scale(3)" fill="rgba(108, 117, 127, 0.41)"></use><use xlink:href="#SvgjsG1569" transform="translate(132, 528) scale(3)" fill="rgba(108, 117, 127, 0.41)"></use><use xlink:href="#SvgjsG1566" transform="translate(198, 0) scale(3)" fill="rgba(108, 117, 127, 0.41)"></use><use xlink:href="#SvgjsG1565" transform="translate(198, 66) scale(3)" fill="rgba(108, 117, 127, 0.41)"></use><use xlink:href="#SvgjsG1566" transform="translate(198, 132) scale(3)" fill="rgba(108, 117, 127, 0.41)"></use><use xlink:href="#SvgjsG1568" transform="translate(198, 198) scale(3)" fill="rgba(108, 117, 127, 0.41)"></use><use xlink:href="#SvgjsG1570" transform="translate(198, 264) scale(3)" fill="rgba(108, 117, 127, 0.41)"></use><use xlink:href="#SvgjsG1563" transform="translate(198, 330) scale(3)" fill="rgba(108, 117, 127, 0.41)"></use><use xlink:href="#SvgjsG1567" transform="translate(198, 396) scale(3)" fill="rgba(108, 117, 127, 0.41)"></use><use xlink:href="#SvgjsG1569" transform="translate(198, 462) scale(3)" fill="rgba(108, 117, 127, 0.41)"></use><use xlink:href="#SvgjsG1568" transform="translate(198, 528) scale(3)" fill="rgba(108, 117, 127, 0.41)"></use><use xlink:href="#SvgjsG1571" transform="translate(264, 0) scale(3)" fill="rgba(108, 117, 127, 0.41)"></use><use xlink:href="#SvgjsG1568" transform="translate(264, 66) scale(3)" fill="rgba(108, 117, 127, 0.41)"></use><use xlink:href="#SvgjsG1564" transform="translate(264, 132) scale(3)" fill="rgba(108, 117, 127, 0.41)"></use><use xlink:href="#SvgjsG1570" transform="translate(264, 198) scale(3)" fill="rgba(108, 117, 127, 0.41)"></use><use xlink:href="#SvgjsG1570" transform="translate(264, 264) scale(3)" fill="rgba(108, 117, 127, 0.41)"></use><use xlink:href="#SvgjsG1570" transform="translate(264, 330) scale(3)" fill="rgba(108, 117, 127, 0.41)"></use><use xlink:href="#SvgjsG1568" transform="translate(264, 396) scale(3)" fill="rgba(108, 117, 127, 0.41)"></use><use xlink:href="#SvgjsG1572" transform="translate(264, 462) scale(3)" fill="rgba(108, 117, 127, 0.41)"></use><use xlink:href="#SvgjsG1567" transform="translate(264, 528) scale(3)" fill="rgba(108, 117, 127, 0.41)"></use><use xlink:href="#SvgjsG1567" transform="translate(330, 0) scale(3)" fill="rgba(108, 117, 127, 0.41)"></use><use xlink:href="#SvgjsG1566" transform="translate(330, 66) scale(3)" fill="rgba(108, 117, 127, 0.41)"></use><use xlink:href="#SvgjsG1568" transform="translate(330, 132) scale(3)" fill="rgba(108, 117, 127, 0.41)"></use><use xlink:href="#SvgjsG1566" transform="translate(330, 198) scale(3)" fill="rgba(108, 117, 127, 0.41)"></use><use xlink:href="#SvgjsG1572" transform="translate(330, 264) scale(3)" fill="rgba(108, 117, 127, 0.41)"></use><use xlink:href="#SvgjsG1567" transform="translate(330, 330) scale(3)" fill="rgba(108, 117, 127, 0.41)"></use><use xlink:href="#SvgjsG1568" transform="translate(330, 396) scale(3)" fill="rgba(108, 117, 127, 0.41)"></use><use xlink:href="#SvgjsG1565" transform="translate(330, 462) scale(3)" fill="rgba(108, 117, 127, 0.41)"></use><use xlink:href="#SvgjsG1569" transform="translate(330, 528) scale(3)" fill="rgba(108, 117, 127, 0.41)"></use><use xlink:href="#SvgjsG1563" transform="translate(396, 0) scale(3)" fill="rgba(108, 117, 127, 0.41)"></use><use xlink:href="#SvgjsG1569" transform="translate(396, 66) scale(3)" fill="rgba(108, 117, 127, 0.41)"></use><use xlink:href="#SvgjsG1563" transform="translate(396, 132) scale(3)" fill="rgba(108, 117, 127, 0.41)"></use><use xlink:href="#SvgjsG1569" transform="translate(396, 198) scale(3)" fill="rgba(108, 117, 127, 0.41)"></use><use xlink:href="#SvgjsG1563" transform="translate(396, 264) scale(3)" fill="rgba(108, 117, 127, 0.41)"></use><use xlink:href="#SvgjsG1567" transform="translate(396, 330) scale(3)" fill="rgba(108, 117, 127, 0.41)"></use><use xlink:href="#SvgjsG1570" transform="translate(396, 396) scale(3)" fill="rgba(108, 117, 127, 0.41)"></use><use xlink:href="#SvgjsG1568" transform="translate(396, 462) scale(3)" fill="rgba(108, 117, 127, 0.41)"></use><use xlink:href="#SvgjsG1569" transform="translate(396, 528) scale(3)" fill="rgba(108, 117, 127, 0.41)"></use><use xlink:href="#SvgjsG1566" transform="translate(462, 0) scale(3)" fill="rgba(108, 117, 127, 0.41)"></use><use xlink:href="#SvgjsG1566" transform="translate(462, 66) scale(3)" fill="rgba(108, 117, 127, 0.41)"></use><use xlink:href="#SvgjsG1566" transform="translate(462, 132) scale(3)" fill="rgba(108, 117, 127, 0.41)"></use><use xlink:href="#SvgjsG1570" transform="translate(462, 198) scale(3)" fill="rgba(108, 117, 127, 0.41)"></use><use xlink:href="#SvgjsG1570" transform="translate(462, 264) scale(3)" fill="rgba(108, 117, 127, 0.41)"></use><use xlink:href="#SvgjsG1565" transform="translate(462, 330) scale(3)" fill="rgba(108, 117, 127, 0.41)"></use><use xlink:href="#SvgjsG1572" transform="translate(462, 396) scale(3)" fill="rgba(108, 117, 127, 0.41)"></use><use xlink:href="#SvgjsG1565" transform="translate(462, 462) scale(3)" fill="rgba(108, 117, 127, 0.41)"></use><use xlink:href="#SvgjsG1566" transform="translate(462, 528) scale(3)" fill="rgba(108, 117, 127, 0.41)"></use><use xlink:href="#SvgjsG1569" transform="translate(528, 0) scale(3)" fill="rgba(108, 117, 127, 0.41)"></use><use xlink:href="#SvgjsG1569" transform="translate(528, 66) scale(3)" fill="rgba(108, 117, 127, 0.41)"></use><use xlink:href="#SvgjsG1566" transform="translate(528, 132) scale(3)" fill="rgba(108, 117, 127, 0.41)"></use><use xlink:href="#SvgjsG1572" transform="translate(528, 198) scale(3)" fill="rgba(108, 117, 127, 0.41)"></use><use xlink:href="#SvgjsG1571" transform="translate(528, 264) scale(3)" fill="rgba(108, 117, 127, 0.41)"></use><use xlink:href="#SvgjsG1570" transform="translate(528, 330) scale(3)" fill="rgba(108, 117, 127, 0.41)"></use><use xlink:href="#SvgjsG1564" transform="translate(528, 396) scale(3)" fill="rgba(108, 117, 127, 0.41)"></use><use xlink:href="#SvgjsG1570" transform="translate(528, 462) scale(3)" fill="rgba(108, 117, 127, 0.41)"></use><use xlink:href="#SvgjsG1569" transform="translate(528, 528) scale(3)" fill="rgba(108, 117, 127, 0.41)"></use><use xlink:href="#SvgjsG1571" transform="translate(594, 0) scale(3)" fill="rgba(108, 117, 127, 0.41)"></use><use xlink:href="#SvgjsG1563" transform="translate(594, 66) scale(3)" fill="rgba(108, 117, 127, 0.41)"></use><use xlink:href="#SvgjsG1567" transform="translate(594, 132) scale(3)" fill="rgba(108, 117, 127, 0.41)"></use><use xlink:href="#SvgjsG1571" transform="translate(594, 198) scale(3)" fill="rgba(108, 117, 127, 0.41)"></use><use xlink:href="#SvgjsG1571" transform="translate(594, 264) scale(3)" fill="rgba(108, 117, 127, 0.41)"></use><use xlink:href="#SvgjsG1564" transform="translate(594, 330) scale(3)" fill="rgba(108, 117, 127, 0.41)"></use><use xlink:href="#SvgjsG1569" transform="translate(594, 396) scale(3)" fill="rgba(108, 117, 127, 0.41)"></use><use xlink:href="#SvgjsG1569" transform="translate(594, 462) scale(3)" fill="rgba(108, 117, 127, 0.41)"></use><use xlink:href="#SvgjsG1571" transform="translate(594, 528) scale(3)" fill="rgba(108, 117, 127, 0.41)"></use></g></defs></svg>