<svg xmlns="http://www.w3.org/2000/svg" version="1.1" xmlns:xlink="http://www.w3.org/1999/xlink" xmlns:svgjs="http://svgjs.dev/svgjs" width="1440" height="560" preserveAspectRatio="none" viewBox="0 0 1440 560"><g mask="url(&quot;#SvgjsMask1006&quot;)" fill="none"><path d="M-78.05 382.3L-78.05 382.3" stroke="#132e65" stroke-width="1.5"></path><path d="M-78.05 382.3L40.49 385.11" stroke="#132e65" stroke-width="1.5"></path><path d="M-78.05 382.3L-59 536.65" stroke="#132e65" stroke-width="1.5"></path><path d="M-78.05 382.3L61.75 501.65" stroke="#132e65" stroke-width="1.5"></path><path d="M-78.05 382.3L-109.04 667.29" stroke="#132e65" stroke-width="1.5"></path><path d="M-78.05 382.3L226.59 505.77" stroke="#132e65" stroke-width="1.5"></path><path d="M-78.05 382.3L69.26 676.27" stroke="#132e65" stroke-width="1.5"></path><path d="M-59 536.65L-59 536.65" stroke="#132e65" stroke-width="1.5"></path><path d="M-59 536.65L61.75 501.65" stroke="#132e65" stroke-width="1.5"></path><path d="M-59 536.65L-109.04 667.29" stroke="#132e65" stroke-width="1.5"></path><path d="M-109.04 667.29L-109.04 667.29" stroke="#132e65" stroke-width="1.5"></path><path d="M-109.04 667.29L69.26 676.27" stroke="#132e65" stroke-width="1.5"></path><path d="M-109.04 667.29L61.75 501.65" stroke="#132e65" stroke-width="1.5"></path><path d="M-109.04 667.29L40.49 385.11" stroke="#132e65" stroke-width="1.5"></path><path d="M40.49 385.11L40.49 385.11" stroke="#132e65" stroke-width="1.5"></path><path d="M40.49 385.11L61.75 501.65" stroke="#132e65" stroke-width="1.5"></path><path d="M40.49 385.11L-59 536.65" stroke="#132e65" stroke-width="1.5"></path><path d="M61.75 501.65L61.75 501.65" stroke="#132e65" stroke-width="1.5"></path><path d="M61.75 501.65L226.59 505.77" stroke="#132e65" stroke-width="1.5"></path><path d="M69.26 676.27L69.26 676.27" stroke="#132e65" stroke-width="1.5"></path><path d="M69.26 676.27L61.75 501.65" stroke="#132e65" stroke-width="1.5"></path><path d="M261.86 383.24L261.86 383.24" stroke="#132e65" stroke-width="1.5"></path><path d="M261.86 383.24L343.29 396.28" stroke="#132e65" stroke-width="1.5"></path><path d="M261.86 383.24L226.59 505.77" stroke="#132e65" stroke-width="1.5"></path><path d="M261.86 383.24L409.55 512.09" stroke="#132e65" stroke-width="1.5"></path><path d="M261.86 383.24L40.49 385.11" stroke="#132e65" stroke-width="1.5"></path><path d="M226.59 505.77L226.59 505.77" stroke="#132e65" stroke-width="1.5"></path><path d="M226.59 505.77L343.29 396.28" stroke="#132e65" stroke-width="1.5"></path><path d="M343.29 396.28L343.29 396.28" stroke="#132e65" stroke-width="1.5"></path><path d="M343.29 396.28L409.55 512.09" stroke="#132e65" stroke-width="1.5"></path><path d="M409.55 512.09L409.55 512.09" stroke="#132e65" stroke-width="1.5"></path><path d="M409.55 512.09L487.78 523.51" stroke="#132e65" stroke-width="1.5"></path><path d="M409.55 512.09L515.07 410.66" stroke="#132e65" stroke-width="1.5"></path><path d="M409.55 512.09L344.71 648.92" stroke="#132e65" stroke-width="1.5"></path><path d="M409.55 512.09L226.59 505.77" stroke="#132e65" stroke-width="1.5"></path><path d="M344.71 648.92L344.71 648.92" stroke="#132e65" stroke-width="1.5"></path><path d="M344.71 648.92L226.59 505.77" stroke="#132e65" stroke-width="1.5"></path><path d="M344.71 648.92L487.78 523.51" stroke="#132e65" stroke-width="1.5"></path><path d="M344.71 648.92L536.96 675.61" stroke="#132e65" stroke-width="1.5"></path><path d="M515.07 410.66L515.07 410.66" stroke="#132e65" stroke-width="1.5"></path><path d="M515.07 410.66L487.78 523.51" stroke="#132e65" stroke-width="1.5"></path><path d="M515.07 410.66L667.48 408.39" stroke="#132e65" stroke-width="1.5"></path><path d="M515.07 410.66L343.29 396.28" stroke="#132e65" stroke-width="1.5"></path><path d="M515.07 410.66L706.31 503.41" stroke="#132e65" stroke-width="1.5"></path><path d="M515.07 410.66L261.86 383.24" stroke="#132e65" stroke-width="1.5"></path><path d="M487.78 523.51L487.78 523.51" stroke="#132e65" stroke-width="1.5"></path><path d="M487.78 523.51L536.96 675.61" stroke="#132e65" stroke-width="1.5"></path><path d="M487.78 523.51L343.29 396.28" stroke="#132e65" stroke-width="1.5"></path><path d="M487.78 523.51L667.48 408.39" stroke="#132e65" stroke-width="1.5"></path><path d="M536.96 675.61L536.96 675.61" stroke="#132e65" stroke-width="1.5"></path><path d="M536.96 675.61L670.05 661.21" stroke="#132e65" stroke-width="1.5"></path><path d="M536.96 675.61L409.55 512.09" stroke="#132e65" stroke-width="1.5"></path><path d="M536.96 675.61L706.31 503.41" stroke="#132e65" stroke-width="1.5"></path><path d="M536.96 675.61L515.07 410.66" stroke="#132e65" stroke-width="1.5"></path><path d="M667.48 408.39L667.48 408.39" stroke="#132e65" stroke-width="1.5"></path><path d="M667.48 408.39L706.31 503.41" stroke="#132e65" stroke-width="1.5"></path><path d="M667.48 408.39L793.54 340.1" stroke="#132e65" stroke-width="1.5"></path><path d="M706.31 503.41L706.31 503.41" stroke="#132e65" stroke-width="1.5"></path><path d="M706.31 503.41L804.92 493.92" stroke="#132e65" stroke-width="1.5"></path><path d="M706.31 503.41L670.05 661.21" stroke="#132e65" stroke-width="1.5"></path><path d="M670.05 661.21L670.05 661.21" stroke="#132e65" stroke-width="1.5"></path><path d="M670.05 661.21L804.92 493.92" stroke="#132e65" stroke-width="1.5"></path><path d="M670.05 661.21L487.78 523.51" stroke="#132e65" stroke-width="1.5"></path><path d="M792.44 192.74L792.44 192.74" stroke="#132e65" stroke-width="1.5"></path><path d="M792.44 192.74L793.54 340.1" stroke="#132e65" stroke-width="1.5"></path><path d="M792.44 192.74L977.96 254.86" stroke="#132e65" stroke-width="1.5"></path><path d="M792.44 192.74L969.64 92.03" stroke="#132e65" stroke-width="1.5"></path><path d="M792.44 192.74L667.48 408.39" stroke="#132e65" stroke-width="1.5"></path><path d="M792.44 192.74L938.05 396.55" stroke="#132e65" stroke-width="1.5"></path><path d="M792.44 192.74L804.92 493.92" stroke="#132e65" stroke-width="1.5"></path><path d="M793.54 340.1L793.54 340.1" stroke="#132e65" stroke-width="1.5"></path><path d="M793.54 340.1L804.92 493.92" stroke="#132e65" stroke-width="1.5"></path><path d="M793.54 340.1L938.05 396.55" stroke="#132e65" stroke-width="1.5"></path><path d="M793.54 340.1L706.31 503.41" stroke="#132e65" stroke-width="1.5"></path><path d="M793.54 340.1L977.96 254.86" stroke="#132e65" stroke-width="1.5"></path><path d="M804.92 493.92L804.92 493.92" stroke="#132e65" stroke-width="1.5"></path><path d="M804.92 493.92L667.48 408.39" stroke="#132e65" stroke-width="1.5"></path><path d="M804.92 493.92L938.05 396.55" stroke="#132e65" stroke-width="1.5"></path><path d="M969.64 92.03L969.64 92.03" stroke="#132e65" stroke-width="1.5"></path><path d="M969.64 92.03L1095.52 102.6" stroke="#132e65" stroke-width="1.5"></path><path d="M969.64 92.03L977.96 254.86" stroke="#132e65" stroke-width="1.5"></path><path d="M969.64 92.03L1104.16 194.21" stroke="#132e65" stroke-width="1.5"></path><path d="M969.64 92.03L1096.23 -94.17" stroke="#132e65" stroke-width="1.5"></path><path d="M977.96 254.86L977.96 254.86" stroke="#132e65" stroke-width="1.5"></path><path d="M977.96 254.86L1104.16 194.21" stroke="#132e65" stroke-width="1.5"></path><path d="M977.96 254.86L938.05 396.55" stroke="#132e65" stroke-width="1.5"></path><path d="M977.96 254.86L1116.88 385.29" stroke="#132e65" stroke-width="1.5"></path><path d="M977.96 254.86L1095.52 102.6" stroke="#132e65" stroke-width="1.5"></path><path d="M938.05 396.55L938.05 396.55" stroke="#132e65" stroke-width="1.5"></path><path d="M938.05 396.55L1001.43 498.72" stroke="#132e65" stroke-width="1.5"></path><path d="M1001.43 498.72L1001.43 498.72" stroke="#132e65" stroke-width="1.5"></path><path d="M1001.43 498.72L1155.95 494.56" stroke="#132e65" stroke-width="1.5"></path><path d="M1001.43 498.72L1006.25 654.2" stroke="#132e65" stroke-width="1.5"></path><path d="M1001.43 498.72L1116.88 385.29" stroke="#132e65" stroke-width="1.5"></path><path d="M1006.25 654.2L1006.25 654.2" stroke="#132e65" stroke-width="1.5"></path><path d="M1006.25 654.2L1135.12 666.08" stroke="#132e65" stroke-width="1.5"></path><path d="M1006.25 654.2L1155.95 494.56" stroke="#132e65" stroke-width="1.5"></path><path d="M1006.25 654.2L804.92 493.92" stroke="#132e65" stroke-width="1.5"></path><path d="M1006.25 654.2L938.05 396.55" stroke="#132e65" stroke-width="1.5"></path><path d="M1006.25 654.2L1116.88 385.29" stroke="#132e65" stroke-width="1.5"></path><path d="M1096.23 -94.17L1096.23 -94.17" stroke="#132e65" stroke-width="1.5"></path><path d="M1096.23 -94.17L1095.52 102.6" stroke="#132e65" stroke-width="1.5"></path><path d="M1096.23 -94.17L1311.47 -45.7" stroke="#132e65" stroke-width="1.5"></path><path d="M1095.52 102.6L1095.52 102.6" stroke="#132e65" stroke-width="1.5"></path><path d="M1095.52 102.6L1104.16 194.21" stroke="#132e65" stroke-width="1.5"></path><path d="M1104.16 194.21L1104.16 194.21" stroke="#132e65" stroke-width="1.5"></path><path d="M1116.88 385.29L1116.88 385.29" stroke="#132e65" stroke-width="1.5"></path><path d="M1116.88 385.29L1155.95 494.56" stroke="#132e65" stroke-width="1.5"></path><path d="M1116.88 385.29L1282.53 377.23" stroke="#132e65" stroke-width="1.5"></path><path d="M1155.95 494.56L1155.95 494.56" stroke="#132e65" stroke-width="1.5"></path><path d="M1155.95 494.56L1301.04 523.75" stroke="#132e65" stroke-width="1.5"></path><path d="M1135.12 666.08L1135.12 666.08" stroke="#132e65" stroke-width="1.5"></path><path d="M1135.12 666.08L1293.87 711.48" stroke="#132e65" stroke-width="1.5"></path><path d="M1135.12 666.08L1155.95 494.56" stroke="#132e65" stroke-width="1.5"></path><path d="M1311.47 -45.7L1311.47 -45.7" stroke="#132e65" stroke-width="1.5"></path><path d="M1311.47 -45.7L1406.95 -57.06" stroke="#132e65" stroke-width="1.5"></path><path d="M1311.47 -45.7L1245.45 112.27" stroke="#132e65" stroke-width="1.5"></path><path d="M1311.47 -45.7L1456.82 76.38" stroke="#132e65" stroke-width="1.5"></path><path d="M1311.47 -45.7L1095.52 102.6" stroke="#132e65" stroke-width="1.5"></path><path d="M1311.47 -45.7L1592.62 -104.81" stroke="#132e65" stroke-width="1.5"></path><path d="M1245.45 112.27L1245.45 112.27" stroke="#132e65" stroke-width="1.5"></path><path d="M1245.45 112.27L1288.25 253.82" stroke="#132e65" stroke-width="1.5"></path><path d="M1245.45 112.27L1095.52 102.6" stroke="#132e65" stroke-width="1.5"></path><path d="M1245.45 112.27L1104.16 194.21" stroke="#132e65" stroke-width="1.5"></path><path d="M1288.25 253.82L1288.25 253.82" stroke="#132e65" stroke-width="1.5"></path><path d="M1288.25 253.82L1282.53 377.23" stroke="#132e65" stroke-width="1.5"></path><path d="M1288.25 253.82L1458.14 213.07" stroke="#132e65" stroke-width="1.5"></path><path d="M1288.25 253.82L1104.16 194.21" stroke="#132e65" stroke-width="1.5"></path><path d="M1288.25 253.82L1427.36 394.88" stroke="#132e65" stroke-width="1.5"></path><path d="M1288.25 253.82L1116.88 385.29" stroke="#132e65" stroke-width="1.5"></path><path d="M1282.53 377.23L1282.53 377.23" stroke="#132e65" stroke-width="1.5"></path><path d="M1282.53 377.23L1427.36 394.88" stroke="#132e65" stroke-width="1.5"></path><path d="M1282.53 377.23L1301.04 523.75" stroke="#132e65" stroke-width="1.5"></path><path d="M1282.53 377.23L1155.95 494.56" stroke="#132e65" stroke-width="1.5"></path><path d="M1301.04 523.75L1301.04 523.75" stroke="#132e65" stroke-width="1.5"></path><path d="M1301.04 523.75L1393.59 550.73" stroke="#132e65" stroke-width="1.5"></path><path d="M1301.04 523.75L1427.36 394.88" stroke="#132e65" stroke-width="1.5"></path><path d="M1293.87 711.48L1293.87 711.48" stroke="#132e65" stroke-width="1.5"></path><path d="M1293.87 711.48L1440.07 677.97" stroke="#132e65" stroke-width="1.5"></path><path d="M1293.87 711.48L1301.04 523.75" stroke="#132e65" stroke-width="1.5"></path><path d="M1406.95 -57.06L1406.95 -57.06" stroke="#132e65" stroke-width="1.5"></path><path d="M1406.95 -57.06L1456.82 76.38" stroke="#132e65" stroke-width="1.5"></path><path d="M1456.82 76.38L1456.82 76.38" stroke="#132e65" stroke-width="1.5"></path><path d="M1456.82 76.38L1458.14 213.07" stroke="#132e65" stroke-width="1.5"></path><path d="M1456.82 76.38L1603.39 60.69" stroke="#132e65" stroke-width="1.5"></path><path d="M1458.14 213.07L1458.14 213.07" stroke="#132e65" stroke-width="1.5"></path><path d="M1458.14 213.07L1570.9 248.55" stroke="#132e65" stroke-width="1.5"></path><path d="M1458.14 213.07L1427.36 394.88" stroke="#132e65" stroke-width="1.5"></path><path d="M1458.14 213.07L1603.39 60.69" stroke="#132e65" stroke-width="1.5"></path><path d="M1427.36 394.88L1427.36 394.88" stroke="#132e65" stroke-width="1.5"></path><path d="M1427.36 394.88L1575.08 389.08" stroke="#132e65" stroke-width="1.5"></path><path d="M1427.36 394.88L1393.59 550.73" stroke="#132e65" stroke-width="1.5"></path><path d="M1393.59 550.73L1393.59 550.73" stroke="#132e65" stroke-width="1.5"></path><path d="M1393.59 550.73L1440.07 677.97" stroke="#132e65" stroke-width="1.5"></path><path d="M1393.59 550.73L1293.87 711.48" stroke="#132e65" stroke-width="1.5"></path><path d="M1393.59 550.73L1282.53 377.23" stroke="#132e65" stroke-width="1.5"></path><path d="M1440.07 677.97L1440.07 677.97" stroke="#132e65" stroke-width="1.5"></path><path d="M1592.62 -104.81L1592.62 -104.81" stroke="#132e65" stroke-width="1.5"></path><path d="M1592.62 -104.81L1603.39 60.69" stroke="#132e65" stroke-width="1.5"></path><path d="M1592.62 -104.81L1406.95 -57.06" stroke="#132e65" stroke-width="1.5"></path><path d="M1592.62 -104.81L1456.82 76.38" stroke="#132e65" stroke-width="1.5"></path><path d="M1592.62 -104.81L1458.14 213.07" stroke="#132e65" stroke-width="1.5"></path><path d="M1592.62 -104.81L1570.9 248.55" stroke="#132e65" stroke-width="1.5"></path><path d="M1603.39 60.69L1603.39 60.69" stroke="#132e65" stroke-width="1.5"></path><path d="M1603.39 60.69L1570.9 248.55" stroke="#132e65" stroke-width="1.5"></path><path d="M1603.39 60.69L1406.95 -57.06" stroke="#132e65" stroke-width="1.5"></path><path d="M1570.9 248.55L1570.9 248.55" stroke="#132e65" stroke-width="1.5"></path><path d="M1570.9 248.55L1575.08 389.08" stroke="#132e65" stroke-width="1.5"></path><path d="M1570.9 248.55L1427.36 394.88" stroke="#132e65" stroke-width="1.5"></path><path d="M1575.08 389.08L1575.08 389.08" stroke="#132e65" stroke-width="1.5"></path><path d="M1575.08 389.08L1596.94 516.98" stroke="#132e65" stroke-width="1.5"></path><path d="M1575.08 389.08L1458.14 213.07" stroke="#132e65" stroke-width="1.5"></path><path d="M1575.08 389.08L1393.59 550.73" stroke="#132e65" stroke-width="1.5"></path><path d="M1596.94 516.98L1596.94 516.98" stroke="#132e65" stroke-width="1.5"></path><path d="M1596.94 516.98L1393.59 550.73" stroke="#132e65" stroke-width="1.5"></path><path d="M1596.94 516.98L1427.36 394.88" stroke="#132e65" stroke-width="1.5"></path><circle r="5" cx="-78.05" cy="382.3" fill="#132e65"></circle><circle r="5" cx="-59" cy="536.65" fill="#132e65"></circle><circle r="5" cx="-109.04" cy="667.29" fill="#132e65"></circle><circle r="5" cx="40.49" cy="385.11" fill="#132e65"></circle><circle r="5" cx="61.75" cy="501.65" fill="#132e65"></circle><circle r="5" cx="69.26" cy="676.27" fill="#132e65"></circle><circle r="5" cx="261.86" cy="383.24" fill="#132e65"></circle><circle r="5" cx="226.59" cy="505.77" fill="#132e65"></circle><circle r="5" cx="343.29" cy="396.28" fill="#132e65"></circle><circle r="5" cx="409.55" cy="512.09" fill="#132e65"></circle><circle r="5" cx="344.71" cy="648.92" fill="#132e65"></circle><circle r="5" cx="515.07" cy="410.66" fill="#132e65"></circle><circle r="5" cx="487.78" cy="523.51" fill="#132e65"></circle><circle r="5" cx="536.96" cy="675.61" fill="#132e65"></circle><circle r="5" cx="667.48" cy="408.39" fill="#132e65"></circle><circle r="5" cx="706.31" cy="503.41" fill="#132e65"></circle><circle r="5" cx="670.05" cy="661.21" fill="#132e65"></circle><circle r="5" cx="792.44" cy="192.74" fill="#132e65"></circle><circle r="5" cx="793.54" cy="340.1" fill="#132e65"></circle><circle r="5" cx="804.92" cy="493.92" fill="#132e65"></circle><circle r="5" cx="969.64" cy="92.03" fill="#132e65"></circle><circle r="5" cx="977.96" cy="254.86" fill="#132e65"></circle><circle r="5" cx="938.05" cy="396.55" fill="#132e65"></circle><circle r="5" cx="1001.43" cy="498.72" fill="#132e65"></circle><circle r="5" cx="1006.25" cy="654.2" fill="#132e65"></circle><circle r="5" cx="1096.23" cy="-94.17" fill="#132e65"></circle><circle r="5" cx="1095.52" cy="102.6" fill="#132e65"></circle><circle r="5" cx="1104.16" cy="194.21" fill="#132e65"></circle><circle r="5" cx="1116.88" cy="385.29" fill="#132e65"></circle><circle r="5" cx="1155.95" cy="494.56" fill="#132e65"></circle><circle r="5" cx="1135.12" cy="666.08" fill="#132e65"></circle><circle r="5" cx="1311.47" cy="-45.7" fill="#132e65"></circle><circle r="5" cx="1245.45" cy="112.27" fill="#132e65"></circle><circle r="5" cx="1288.25" cy="253.82" fill="#132e65"></circle><circle r="5" cx="1282.53" cy="377.23" fill="#132e65"></circle><circle r="5" cx="1301.04" cy="523.75" fill="#132e65"></circle><circle r="5" cx="1293.87" cy="711.48" fill="#132e65"></circle><circle r="5" cx="1406.95" cy="-57.06" fill="#132e65"></circle><circle r="5" cx="1456.82" cy="76.38" fill="#132e65"></circle><circle r="5" cx="1458.14" cy="213.07" fill="#132e65"></circle><circle r="5" cx="1427.36" cy="394.88" fill="#132e65"></circle><circle r="5" cx="1393.59" cy="550.73" fill="#132e65"></circle><circle r="5" cx="1440.07" cy="677.97" fill="#132e65"></circle><circle r="5" cx="1592.62" cy="-104.81" fill="#132e65"></circle><circle r="5" cx="1603.39" cy="60.69" fill="#132e65"></circle><circle r="5" cx="1570.9" cy="248.55" fill="#132e65"></circle><circle r="5" cx="1575.08" cy="389.08" fill="#132e65"></circle><circle r="5" cx="1596.94" cy="516.98" fill="#132e65"></circle><path d="M55.9 694.53L55.9 694.53" stroke="hsl(228.5, 77.2%, 51.5%)" stroke-width="1.5"></path><path d="M55.9 694.53L-41.94 676.29" stroke="hsl(228.5, 77.2%, 51.5%)" stroke-width="1.5"></path><path d="M55.9 694.53L226.28 706.23" stroke="hsl(228.5, 77.2%, 51.5%)" stroke-width="1.5"></path><path d="M55.9 694.53L79.97 506.83" stroke="hsl(228.5, 77.2%, 51.5%)" stroke-width="1.5"></path><path d="M939.77 262.31L939.77 262.31" stroke="hsl(228.5, 77.2%, 51.5%)" stroke-width="1.5"></path><path d="M939.77 262.31L950.04 353.77" stroke="hsl(228.5, 77.2%, 51.5%)" stroke-width="1.5"></path><path d="M939.77 262.31L1097.53 222.65" stroke="hsl(228.5, 77.2%, 51.5%)" stroke-width="1.5"></path><path d="M939.77 262.31L798.27 368.84" stroke="hsl(228.5, 77.2%, 51.5%)" stroke-width="1.5"></path><path d="M939.77 262.31L1142.25 368.61" stroke="hsl(228.5, 77.2%, 51.5%)" stroke-width="1.5"></path><path d="M939.77 262.31L996.14 529.23" stroke="hsl(228.5, 77.2%, 51.5%)" stroke-width="1.5"></path><path d="M939.77 262.31L662.16 384.33" stroke="hsl(228.5, 77.2%, 51.5%)" stroke-width="1.5"></path><path d="M996.14 529.23L996.14 529.23" stroke="hsl(228.5, 77.2%, 51.5%)" stroke-width="1.5"></path><path d="M996.14 529.23L1154.82 550.68" stroke="hsl(228.5, 77.2%, 51.5%)" stroke-width="1.5"></path><path d="M996.14 529.23L950.04 353.77" stroke="hsl(228.5, 77.2%, 51.5%)" stroke-width="1.5"></path><path d="M996.14 529.23L808.15 535.94" stroke="hsl(228.5, 77.2%, 51.5%)" stroke-width="1.5"></path><path d="M1276.17 -56.21L1276.17 -56.21" stroke="hsl(228.5, 77.2%, 51.5%)" stroke-width="1.5"></path><path d="M1276.17 -56.21L1154.81 -53.77" stroke="hsl(228.5, 77.2%, 51.5%)" stroke-width="1.5"></path><path d="M1276.17 -56.21L1242.5 66.04" stroke="hsl(228.5, 77.2%, 51.5%)" stroke-width="1.5"></path><path d="M1276.17 -56.21L1410.22 -98.32" stroke="hsl(228.5, 77.2%, 51.5%)" stroke-width="1.5"></path><path d="M1276.17 -56.21L1450.67 60.21" stroke="hsl(228.5, 77.2%, 51.5%)" stroke-width="1.5"></path><path d="M1276.17 -56.21L1272.89 208.1" stroke="hsl(228.5, 77.2%, 51.5%)" stroke-width="1.5"></path><path d="M1272.89 208.1L1272.89 208.1" stroke="hsl(228.5, 77.2%, 51.5%)" stroke-width="1.5"></path><path d="M1272.89 208.1L1394.81 231.42" stroke="hsl(228.5, 77.2%, 51.5%)" stroke-width="1.5"></path><path d="M1272.89 208.1L1242.5 66.04" stroke="hsl(228.5, 77.2%, 51.5%)" stroke-width="1.5"></path><path d="M1272.89 208.1L1253.59 355.16" stroke="hsl(228.5, 77.2%, 51.5%)" stroke-width="1.5"></path><path d="M1272.89 208.1L1097.53 222.65" stroke="hsl(228.5, 77.2%, 51.5%)" stroke-width="1.5"></path><path d="M1540.33 102.86L1540.33 102.86" stroke="hsl(228.5, 77.2%, 51.5%)" stroke-width="1.5"></path><path d="M1540.33 102.86L1450.67 60.21" stroke="hsl(228.5, 77.2%, 51.5%)" stroke-width="1.5"></path><path d="M1540.33 102.86L1591.57 228.08" stroke="hsl(228.5, 77.2%, 51.5%)" stroke-width="1.5"></path><path d="M1540.33 102.86L1547.55 -56.99" stroke="hsl(228.5, 77.2%, 51.5%)" stroke-width="1.5"></path><path d="M1540.33 102.86L1394.81 231.42" stroke="hsl(228.5, 77.2%, 51.5%)" stroke-width="1.5"></path><path d="M1540.33 102.86L1410.22 -98.32" stroke="hsl(228.5, 77.2%, 51.5%)" stroke-width="1.5"></path><path d="M-59.72 533.91L-59.72 533.91" stroke="hsl(228.5, 77.2%, 51.5%)" stroke-width="1.5"></path><path d="M-59.72 533.91L79.97 506.83" stroke="hsl(228.5, 77.2%, 51.5%)" stroke-width="1.5"></path><path d="M-41.94 676.29L-41.94 676.29" stroke="hsl(228.5, 77.2%, 51.5%)" stroke-width="1.5"></path><path d="M-41.94 676.29L-59.72 533.91" stroke="hsl(228.5, 77.2%, 51.5%)" stroke-width="1.5"></path><path d="M-41.94 676.29L79.97 506.83" stroke="hsl(228.5, 77.2%, 51.5%)" stroke-width="1.5"></path><path d="M-41.94 676.29L226.28 706.23" stroke="hsl(228.5, 77.2%, 51.5%)" stroke-width="1.5"></path><path d="M-41.94 676.29L408.54 666.47" stroke="hsl(228.5, 77.2%, 51.5%)" stroke-width="1.5"></path><path d="M79.97 506.83L79.97 506.83" stroke="hsl(228.5, 77.2%, 51.5%)" stroke-width="1.5"></path><path d="M79.97 506.83L226.28 706.23" stroke="hsl(228.5, 77.2%, 51.5%)" stroke-width="1.5"></path><path d="M79.97 506.83L403.36 536.08" stroke="hsl(228.5, 77.2%, 51.5%)" stroke-width="1.5"></path><path d="M226.28 706.23L226.28 706.23" stroke="hsl(228.5, 77.2%, 51.5%)" stroke-width="1.5"></path><path d="M226.28 706.23L408.54 666.47" stroke="hsl(228.5, 77.2%, 51.5%)" stroke-width="1.5"></path><path d="M226.28 706.23L403.36 536.08" stroke="hsl(228.5, 77.2%, 51.5%)" stroke-width="1.5"></path><path d="M226.28 706.23L539.42 666.44" stroke="hsl(228.5, 77.2%, 51.5%)" stroke-width="1.5"></path><path d="M403.36 536.08L403.36 536.08" stroke="hsl(228.5, 77.2%, 51.5%)" stroke-width="1.5"></path><path d="M403.36 536.08L505.51 548.89" stroke="hsl(228.5, 77.2%, 51.5%)" stroke-width="1.5"></path><path d="M403.36 536.08L408.54 666.47" stroke="hsl(228.5, 77.2%, 51.5%)" stroke-width="1.5"></path><path d="M408.54 666.47L408.54 666.47" stroke="hsl(228.5, 77.2%, 51.5%)" stroke-width="1.5"></path><path d="M408.54 666.47L539.42 666.44" stroke="hsl(228.5, 77.2%, 51.5%)" stroke-width="1.5"></path><path d="M505.51 548.89L505.51 548.89" stroke="hsl(228.5, 77.2%, 51.5%)" stroke-width="1.5"></path><path d="M505.51 548.89L539.42 666.44" stroke="hsl(228.5, 77.2%, 51.5%)" stroke-width="1.5"></path><path d="M505.51 548.89L408.54 666.47" stroke="hsl(228.5, 77.2%, 51.5%)" stroke-width="1.5"></path><path d="M505.51 548.89L708.97 519.24" stroke="hsl(228.5, 77.2%, 51.5%)" stroke-width="1.5"></path><path d="M539.42 666.44L539.42 666.44" stroke="hsl(228.5, 77.2%, 51.5%)" stroke-width="1.5"></path><path d="M662.16 384.33L662.16 384.33" stroke="hsl(228.5, 77.2%, 51.5%)" stroke-width="1.5"></path><path d="M662.16 384.33L798.27 368.84" stroke="hsl(228.5, 77.2%, 51.5%)" stroke-width="1.5"></path><path d="M662.16 384.33L708.97 519.24" stroke="hsl(228.5, 77.2%, 51.5%)" stroke-width="1.5"></path><path d="M708.97 519.24L708.97 519.24" stroke="hsl(228.5, 77.2%, 51.5%)" stroke-width="1.5"></path><path d="M708.97 519.24L808.15 535.94" stroke="hsl(228.5, 77.2%, 51.5%)" stroke-width="1.5"></path><path d="M708.97 519.24L706.68 662.3" stroke="hsl(228.5, 77.2%, 51.5%)" stroke-width="1.5"></path><path d="M708.97 519.24L798.27 368.84" stroke="hsl(228.5, 77.2%, 51.5%)" stroke-width="1.5"></path><path d="M706.68 662.3L706.68 662.3" stroke="hsl(228.5, 77.2%, 51.5%)" stroke-width="1.5"></path><path d="M706.68 662.3L848.03 676.93" stroke="hsl(228.5, 77.2%, 51.5%)" stroke-width="1.5"></path><path d="M706.68 662.3L808.15 535.94" stroke="hsl(228.5, 77.2%, 51.5%)" stroke-width="1.5"></path><path d="M706.68 662.3L539.42 666.44" stroke="hsl(228.5, 77.2%, 51.5%)" stroke-width="1.5"></path><path d="M706.68 662.3L505.51 548.89" stroke="hsl(228.5, 77.2%, 51.5%)" stroke-width="1.5"></path><path d="M706.68 662.3L662.16 384.33" stroke="hsl(228.5, 77.2%, 51.5%)" stroke-width="1.5"></path><path d="M798.27 368.84L798.27 368.84" stroke="hsl(228.5, 77.2%, 51.5%)" stroke-width="1.5"></path><path d="M798.27 368.84L950.04 353.77" stroke="hsl(228.5, 77.2%, 51.5%)" stroke-width="1.5"></path><path d="M798.27 368.84L808.15 535.94" stroke="hsl(228.5, 77.2%, 51.5%)" stroke-width="1.5"></path><path d="M808.15 535.94L808.15 535.94" stroke="hsl(228.5, 77.2%, 51.5%)" stroke-width="1.5"></path><path d="M808.15 535.94L848.03 676.93" stroke="hsl(228.5, 77.2%, 51.5%)" stroke-width="1.5"></path><path d="M848.03 676.93L848.03 676.93" stroke="hsl(228.5, 77.2%, 51.5%)" stroke-width="1.5"></path><path d="M848.03 676.93L996.14 529.23" stroke="hsl(228.5, 77.2%, 51.5%)" stroke-width="1.5"></path><path d="M848.03 676.93L708.97 519.24" stroke="hsl(228.5, 77.2%, 51.5%)" stroke-width="1.5"></path><path d="M848.03 676.93L1151.3 666.49" stroke="hsl(228.5, 77.2%, 51.5%)" stroke-width="1.5"></path><path d="M950.04 353.77L950.04 353.77" stroke="hsl(228.5, 77.2%, 51.5%)" stroke-width="1.5"></path><path d="M1154.81 -53.77L1154.81 -53.77" stroke="hsl(228.5, 77.2%, 51.5%)" stroke-width="1.5"></path><path d="M1154.81 -53.77L1242.5 66.04" stroke="hsl(228.5, 77.2%, 51.5%)" stroke-width="1.5"></path><path d="M1154.81 -53.77L1410.22 -98.32" stroke="hsl(228.5, 77.2%, 51.5%)" stroke-width="1.5"></path><path d="M1154.81 -53.77L1097.53 222.65" stroke="hsl(228.5, 77.2%, 51.5%)" stroke-width="1.5"></path><path d="M1097.53 222.65L1097.53 222.65" stroke="hsl(228.5, 77.2%, 51.5%)" stroke-width="1.5"></path><path d="M1097.53 222.65L1142.25 368.61" stroke="hsl(228.5, 77.2%, 51.5%)" stroke-width="1.5"></path><path d="M1097.53 222.65L950.04 353.77" stroke="hsl(228.5, 77.2%, 51.5%)" stroke-width="1.5"></path><path d="M1097.53 222.65L1253.59 355.16" stroke="hsl(228.5, 77.2%, 51.5%)" stroke-width="1.5"></path><path d="M1097.53 222.65L1242.5 66.04" stroke="hsl(228.5, 77.2%, 51.5%)" stroke-width="1.5"></path><path d="M1142.25 368.61L1142.25 368.61" stroke="hsl(228.5, 77.2%, 51.5%)" stroke-width="1.5"></path><path d="M1142.25 368.61L1253.59 355.16" stroke="hsl(228.5, 77.2%, 51.5%)" stroke-width="1.5"></path><path d="M1154.82 550.68L1154.82 550.68" stroke="hsl(228.5, 77.2%, 51.5%)" stroke-width="1.5"></path><path d="M1154.82 550.68L1151.3 666.49" stroke="hsl(228.5, 77.2%, 51.5%)" stroke-width="1.5"></path><path d="M1154.82 550.68L1302.92 529.16" stroke="hsl(228.5, 77.2%, 51.5%)" stroke-width="1.5"></path><path d="M1154.82 550.68L1257.43 699.18" stroke="hsl(228.5, 77.2%, 51.5%)" stroke-width="1.5"></path><path d="M1154.82 550.68L1142.25 368.61" stroke="hsl(228.5, 77.2%, 51.5%)" stroke-width="1.5"></path><path d="M1154.82 550.68L1253.59 355.16" stroke="hsl(228.5, 77.2%, 51.5%)" stroke-width="1.5"></path><path d="M1151.3 666.49L1151.3 666.49" stroke="hsl(228.5, 77.2%, 51.5%)" stroke-width="1.5"></path><path d="M1151.3 666.49L1257.43 699.18" stroke="hsl(228.5, 77.2%, 51.5%)" stroke-width="1.5"></path><path d="M1151.3 666.49L1302.92 529.16" stroke="hsl(228.5, 77.2%, 51.5%)" stroke-width="1.5"></path><path d="M1242.5 66.04L1242.5 66.04" stroke="hsl(228.5, 77.2%, 51.5%)" stroke-width="1.5"></path><path d="M1242.5 66.04L1450.67 60.21" stroke="hsl(228.5, 77.2%, 51.5%)" stroke-width="1.5"></path><path d="M1242.5 66.04L1394.81 231.42" stroke="hsl(228.5, 77.2%, 51.5%)" stroke-width="1.5"></path><path d="M1253.59 355.16L1253.59 355.16" stroke="hsl(228.5, 77.2%, 51.5%)" stroke-width="1.5"></path><path d="M1253.59 355.16L1431.99 377.25" stroke="hsl(228.5, 77.2%, 51.5%)" stroke-width="1.5"></path><path d="M1302.92 529.16L1302.92 529.16" stroke="hsl(228.5, 77.2%, 51.5%)" stroke-width="1.5"></path><path d="M1302.92 529.16L1396.05 556.35" stroke="hsl(228.5, 77.2%, 51.5%)" stroke-width="1.5"></path><path d="M1257.43 699.18L1257.43 699.18" stroke="hsl(228.5, 77.2%, 51.5%)" stroke-width="1.5"></path><path d="M1257.43 699.18L1302.92 529.16" stroke="hsl(228.5, 77.2%, 51.5%)" stroke-width="1.5"></path><path d="M1257.43 699.18L1396.05 556.35" stroke="hsl(228.5, 77.2%, 51.5%)" stroke-width="1.5"></path><path d="M1257.43 699.18L996.14 529.23" stroke="hsl(228.5, 77.2%, 51.5%)" stroke-width="1.5"></path><path d="M1410.22 -98.32L1410.22 -98.32" stroke="hsl(228.5, 77.2%, 51.5%)" stroke-width="1.5"></path><path d="M1410.22 -98.32L1547.55 -56.99" stroke="hsl(228.5, 77.2%, 51.5%)" stroke-width="1.5"></path><path d="M1410.22 -98.32L1450.67 60.21" stroke="hsl(228.5, 77.2%, 51.5%)" stroke-width="1.5"></path><path d="M1410.22 -98.32L1242.5 66.04" stroke="hsl(228.5, 77.2%, 51.5%)" stroke-width="1.5"></path><path d="M1450.67 60.21L1450.67 60.21" stroke="hsl(228.5, 77.2%, 51.5%)" stroke-width="1.5"></path><path d="M1450.67 60.21L1547.55 -56.99" stroke="hsl(228.5, 77.2%, 51.5%)" stroke-width="1.5"></path><path d="M1450.67 60.21L1394.81 231.42" stroke="hsl(228.5, 77.2%, 51.5%)" stroke-width="1.5"></path><path d="M1394.81 231.42L1394.81 231.42" stroke="hsl(228.5, 77.2%, 51.5%)" stroke-width="1.5"></path><path d="M1394.81 231.42L1431.99 377.25" stroke="hsl(228.5, 77.2%, 51.5%)" stroke-width="1.5"></path><path d="M1394.81 231.42L1253.59 355.16" stroke="hsl(228.5, 77.2%, 51.5%)" stroke-width="1.5"></path><path d="M1431.99 377.25L1431.99 377.25" stroke="hsl(228.5, 77.2%, 51.5%)" stroke-width="1.5"></path><path d="M1431.99 377.25L1396.05 556.35" stroke="hsl(228.5, 77.2%, 51.5%)" stroke-width="1.5"></path><path d="M1396.05 556.35L1396.05 556.35" stroke="hsl(228.5, 77.2%, 51.5%)" stroke-width="1.5"></path><path d="M1547.55 -56.99L1547.55 -56.99" stroke="hsl(228.5, 77.2%, 51.5%)" stroke-width="1.5"></path><path d="M1547.55 -56.99L1276.17 -56.21" stroke="hsl(228.5, 77.2%, 51.5%)" stroke-width="1.5"></path><path d="M1547.55 -56.99L1591.57 228.08" stroke="hsl(228.5, 77.2%, 51.5%)" stroke-width="1.5"></path><path d="M1591.57 228.08L1591.57 228.08" stroke="hsl(228.5, 77.2%, 51.5%)" stroke-width="1.5"></path><path d="M1591.57 228.08L1394.81 231.42" stroke="hsl(228.5, 77.2%, 51.5%)" stroke-width="1.5"></path><path d="M1591.57 228.08L1431.99 377.25" stroke="hsl(228.5, 77.2%, 51.5%)" stroke-width="1.5"></path><path d="M1591.57 228.08L1450.67 60.21" stroke="hsl(228.5, 77.2%, 51.5%)" stroke-width="1.5"></path><path d="M1591.57 228.08L1605.12 505.9" stroke="hsl(228.5, 77.2%, 51.5%)" stroke-width="1.5"></path><path d="M1605.12 505.9L1605.12 505.9" stroke="hsl(228.5, 77.2%, 51.5%)" stroke-width="1.5"></path><path d="M1605.12 505.9L1603.13 677.78" stroke="hsl(228.5, 77.2%, 51.5%)" stroke-width="1.5"></path><path d="M1605.12 505.9L1396.05 556.35" stroke="hsl(228.5, 77.2%, 51.5%)" stroke-width="1.5"></path><path d="M1605.12 505.9L1431.99 377.25" stroke="hsl(228.5, 77.2%, 51.5%)" stroke-width="1.5"></path><path d="M1603.13 677.78L1603.13 677.78" stroke="hsl(228.5, 77.2%, 51.5%)" stroke-width="1.5"></path><path d="M1603.13 677.78L1396.05 556.35" stroke="hsl(228.5, 77.2%, 51.5%)" stroke-width="1.5"></path><path d="M1603.13 677.78L1302.92 529.16" stroke="hsl(228.5, 77.2%, 51.5%)" stroke-width="1.5"></path><path d="M1603.13 677.78L1431.99 377.25" stroke="hsl(228.5, 77.2%, 51.5%)" stroke-width="1.5"></path><path d="M1603.13 677.78L1257.43 699.18" stroke="hsl(228.5, 77.2%, 51.5%)" stroke-width="1.5"></path><path d="M1603.13 677.78L1591.57 228.08" stroke="hsl(228.5, 77.2%, 51.5%)" stroke-width="1.5"></path><circle r="25" cx="55.9" cy="694.53" fill="url(&quot;#SvgjsRadialGradient1007&quot;)"></circle><circle r="25" cx="939.77" cy="262.31" fill="url(&quot;#SvgjsRadialGradient1007&quot;)"></circle><circle r="25" cx="996.14" cy="529.23" fill="url(&quot;#SvgjsRadialGradient1007&quot;)"></circle><circle r="25" cx="1276.17" cy="-56.21" fill="url(&quot;#SvgjsRadialGradient1007&quot;)"></circle><circle r="25" cx="1272.89" cy="208.1" fill="url(&quot;#SvgjsRadialGradient1007&quot;)"></circle><circle r="25" cx="1540.33" cy="102.86" fill="url(&quot;#SvgjsRadialGradient1007&quot;)"></circle><circle r="5" cx="-59.72" cy="533.91" fill="#8b9ad9"></circle><circle r="5" cx="-41.94" cy="676.29" fill="#8b9ad9"></circle><circle r="5" cx="79.97" cy="506.83" fill="#8b9ad9"></circle><circle r="5" cx="226.28" cy="706.23" fill="#8b9ad9"></circle><circle r="5" cx="403.36" cy="536.08" fill="#8b9ad9"></circle><circle r="5" cx="408.54" cy="666.47" fill="#8b9ad9"></circle><circle r="5" cx="505.51" cy="548.89" fill="#8b9ad9"></circle><circle r="5" cx="539.42" cy="666.44" fill="#8b9ad9"></circle><circle r="5" cx="662.16" cy="384.33" fill="#8b9ad9"></circle><circle r="5" cx="708.97" cy="519.24" fill="#8b9ad9"></circle><circle r="5" cx="706.68" cy="662.3" fill="#8b9ad9"></circle><circle r="5" cx="798.27" cy="368.84" fill="#8b9ad9"></circle><circle r="5" cx="808.15" cy="535.94" fill="#8b9ad9"></circle><circle r="5" cx="848.03" cy="676.93" fill="#8b9ad9"></circle><circle r="5" cx="950.04" cy="353.77" fill="#8b9ad9"></circle><circle r="5" cx="1154.81" cy="-53.77" fill="#8b9ad9"></circle><circle r="5" cx="1097.53" cy="222.65" fill="#8b9ad9"></circle><circle r="5" cx="1142.25" cy="368.61" fill="#8b9ad9"></circle><circle r="5" cx="1154.82" cy="550.68" fill="#8b9ad9"></circle><circle r="5" cx="1151.3" cy="666.49" fill="#8b9ad9"></circle><circle r="5" cx="1242.5" cy="66.04" fill="#8b9ad9"></circle><circle r="5" cx="1253.59" cy="355.16" fill="#8b9ad9"></circle><circle r="5" cx="1302.92" cy="529.16" fill="#8b9ad9"></circle><circle r="5" cx="1257.43" cy="699.18" fill="#8b9ad9"></circle><circle r="5" cx="1410.22" cy="-98.32" fill="#8b9ad9"></circle><circle r="5" cx="1450.67" cy="60.21" fill="#8b9ad9"></circle><circle r="5" cx="1394.81" cy="231.42" fill="#8b9ad9"></circle><circle r="5" cx="1431.99" cy="377.25" fill="#8b9ad9"></circle><circle r="5" cx="1396.05" cy="556.35" fill="#8b9ad9"></circle><circle r="5" cx="1547.55" cy="-56.99" fill="#8b9ad9"></circle><circle r="5" cx="1591.57" cy="228.08" fill="#8b9ad9"></circle><circle r="5" cx="1605.12" cy="505.9" fill="#8b9ad9"></circle><circle r="5" cx="1603.13" cy="677.78" fill="#8b9ad9"></circle></g><defs><mask id="SvgjsMask1006"><rect width="1440" height="560" fill="#ffffff"></rect></mask><radialGradient id="SvgjsRadialGradient1007"><stop stop-color="#ffffff" offset="0.1"></stop><stop stop-color="#1735b3" offset="0.2"></stop><stop stop-color="rgba(23, 53, 179, 0)" offset="1"></stop></radialGradient></defs></svg>